xxx.ufo
<glyph name="ar2Dot.above" format="2">
  <advance width="455"/>
  <unicode hex="0000"/>
  <unicode hex="FE97"/>
  <outline>
    <contour>
      <point x="186" y="708" type="qcurve"/>
      <point x="109" y="775"/>
      <point x="39" y="818" type="qcurve"/>
      <point x="87" y="877"/>
      <point x="142" y="965" type="qcurve"/>
      <point x="187" y="914"/>
      <point x="243" y="880" type="qcurve"/>
      <point x="285" y="933"/>
      <point x="316" y="987" type="qcurve"/>
      <point x="391" y="916"/>
      <point x="455" y="878" type="qcurve"/>
      <point x="408" y="818"/>
      <point x="364" y="726" type="qcurve"/>
      <point x="304" y="781"/>
      <point x="254" y="812" type="qcurve"/>
      <point x="220" y="770"/>
    </contour>
    <contour>
      <point x="265" y="251" type="qcurve"/>
      <point x="250" y="291"/>
      <point x="209" y="335" type="qcurve" smooth="yes"/>
      <point x="172" y="375" type="line" smooth="yes"/>
      <point x="170" y="377"/>
      <point x="163" y="385" type="qcurve"/>
      <point x="192" y="462"/>
      <point x="259" y="552" type="qcurve" smooth="yes"/>
      <point x="267" y="563" type="line"/>
      <point x="363" y="423"/>
      <point x="363" y="273" type="qcurve" smooth="yes"/>
      <point x="363" y="211"/>
      <point x="304" y="77"/>
      <point x="257" y="34" type="qcurve"/>
      <point x="225" y="12"/>
      <point x="139" y="6" type="qcurve" smooth="yes"/>
      <point x="120" y="4"/>
      <point x="87" y="1" type="qcurve" smooth="yes"/>
      <point x="27" y="-4"/>
      <point x="-2" y="0" type="qcurve"/>
      <point x="-60" y="0"/>
      <point x="-60" y="31" type="qcurve" smooth="yes"/>
      <point x="-60" y="189" type="line" smooth="yes"/>
      <point x="-60" y="221"/>
      <point x="-19" y="221" type="qcurve" smooth="yes"/>
      <point x="143" y="221" type="line" smooth="yes"/>
      <point x="231" y="221"/>
    </contour>
  </outline>
</glyph>
<glyph name="ar2Dot.below" format="2">
  <advance width="455"/>
  <unicode hex="0000"/>
  <unicode hex="FEF3"/>
  <outline>
    <contour>
      <point x="164" y="-431" type="qcurve"/>
      <point x="87" y="-365"/>
      <point x="17" y="-321" type="qcurve"/>
      <point x="65" y="-263"/>
      <point x="120" y="-174" type="qcurve"/>
      <point x="166" y="-225"/>
      <point x="221" y="-259" type="qcurve"/>
      <point x="263" y="-206"/>
      <point x="294" y="-153" type="qcurve"/>
      <point x="369" y="-223"/>
      <point x="433" y="-261" type="qcurve"/>
      <point x="387" y="-321"/>
      <point x="342" y="-413" type="qcurve"/>
      <point x="283" y="-358"/>
      <point x="232" y="-327" type="qcurve"/>
      <point x="198" y="-369"/>
    </contour>
    <contour>
      <point x="266" y="251" type="qcurve"/>
      <point x="251" y="291"/>
      <point x="210" y="335" type="qcurve" smooth="yes"/>
      <point x="173" y="375" type="line" smooth="yes"/>
      <point x="171" y="377"/>
      <point x="163" y="385" type="qcurve"/>
      <point x="193" y="462"/>
      <point x="260" y="552" type="qcurve"/>
      <point x="267" y="563" type="line"/>
      <point x="364" y="423"/>
      <point x="364" y="273" type="qcurve" smooth="yes"/>
      <point x="364" y="211"/>
      <point x="304" y="77"/>
      <point x="258" y="34" type="qcurve"/>
      <point x="225" y="12"/>
      <point x="140" y="6" type="qcurve" smooth="yes"/>
      <point x="121" y="4"/>
      <point x="88" y="1" type="qcurve" smooth="yes"/>
      <point x="28" y="-4"/>
      <point x="-1" y="0" type="qcurve"/>
      <point x="-60" y="0"/>
      <point x="-60" y="31" type="qcurve" smooth="yes"/>
      <point x="-60" y="189" type="line" smooth="yes"/>
      <point x="-60" y="221"/>
      <point x="-19" y="221" type="qcurve" smooth="yes"/>
      <point x="144" y="221" type="line" smooth="yes"/>
      <point x="232" y="221"/>
    </contour>
  </outline>
</glyph>
<glyph name="ar3Dot.above" format="2">
  <advance width="455"/>
  <unicode hex="0000"/>
  <unicode hex="FE9B"/>
  <outline>
    <contour>
      <point x="186" y="708" type="qcurve"/>
      <point x="109" y="775"/>
      <point x="39" y="818" type="qcurve"/>
      <point x="87" y="877"/>
      <point x="142" y="965" type="qcurve"/>
      <point x="187" y="914"/>
      <point x="243" y="880" type="qcurve"/>
      <point x="285" y="933"/>
      <point x="316" y="987" type="qcurve"/>
      <point x="391" y="916"/>
      <point x="455" y="878" type="qcurve"/>
      <point x="408" y="818"/>
      <point x="364" y="726" type="qcurve"/>
      <point x="304" y="781"/>
      <point x="254" y="812" type="qcurve"/>
      <point x="220" y="770"/>
    </contour>
    <contour>
      <point x="231" y="954" type="qcurve"/>
      <point x="194" y="983" type="line" smooth="yes"/>
      <point x="142" y="1024"/>
      <point x="91" y="1054" type="qcurve"/>
      <point x="138" y="1121"/>
      <point x="182" y="1219" type="qcurve"/>
      <point x="255" y="1146"/>
      <point x="322" y="1106" type="qcurve"/>
      <point x="269" y="1025"/>
    </contour>
    <contour>
      <point x="265" y="251" type="qcurve"/>
      <point x="250" y="291"/>
      <point x="209" y="335" type="qcurve" smooth="yes"/>
      <point x="172" y="375" type="line" smooth="yes"/>
      <point x="170" y="377"/>
      <point x="163" y="385" type="qcurve"/>
      <point x="192" y="462"/>
      <point x="259" y="552" type="qcurve" smooth="yes"/>
      <point x="267" y="563" type="line"/>
      <point x="363" y="423"/>
      <point x="363" y="273" type="qcurve" smooth="yes"/>
      <point x="363" y="211"/>
      <point x="304" y="77"/>
      <point x="257" y="34" type="qcurve"/>
      <point x="225" y="12"/>
      <point x="139" y="6" type="qcurve" smooth="yes"/>
      <point x="120" y="4"/>
      <point x="87" y="1" type="qcurve" smooth="yes"/>
      <point x="27" y="-4"/>
      <point x="-2" y="0" type="qcurve"/>
      <point x="-60" y="0"/>
      <point x="-60" y="31" type="qcurve" smooth="yes"/>
      <point x="-60" y="189" type="line" smooth="yes"/>
      <point x="-60" y="221"/>
      <point x="-19" y="221" type="qcurve" smooth="yes"/>
      <point x="143" y="221" type="line" smooth="yes"/>
      <point x="231" y="221"/>
    </contour>
  </outline>
</glyph>
<glyph name="arAin.fina" format="2">
  <advance width="967"/>
  <unicode hex="0000"/>
  <unicode hex="FECA"/>
  <outline>
    <contour>
      <point x="537" y="170" type="qcurve"/>
      <point x="446" y="137"/>
      <point x="346" y="29" type="qcurve" smooth="yes"/>
      <point x="200" y="-130"/>
      <point x="200" y="-331" type="qcurve" smooth="yes"/>
      <point x="200" y="-443"/>
      <point x="335" y="-593"/>
      <point x="480" y="-642" type="qcurve" smooth="yes"/>
      <point x="679" y="-709"/>
      <point x="988" y="-709" type="qcurve" smooth="yes"/>
      <point x="1128" y="-709"/>
      <point x="1211" y="-695" type="qcurve" smooth="yes"/>
      <point x="1237" y="-691" type="line" smooth="yes"/>
      <point x="1245" y="-690"/>
      <point x="1253" y="-690" type="qcurve" smooth="yes"/>
      <point x="1282" y="-690"/>
      <point x="1282" y="-715" type="qcurve" smooth="yes"/>
      <point x="1282" y="-740"/>
      <point x="1210" y="-785" type="qcurve" smooth="yes"/>
      <point x="976" y="-930"/>
      <point x="732" y="-930" type="qcurve" smooth="yes"/>
      <point x="571" y="-930"/>
      <point x="281" y="-820"/>
      <point x="195" y="-725" type="qcurve" smooth="yes"/>
      <point x="76" y="-595"/>
      <point x="76" y="-387" type="qcurve" smooth="yes"/>
      <point x="76" y="-71"/>
      <point x="411" y="244" type="qcurve"/>
      <point x="335" y="306"/>
      <point x="263" y="306" type="qcurve" smooth="yes"/>
      <point x="259" y="306"/>
      <point x="247" y="305" type="qcurve"/>
      <point x="267" y="422"/>
      <point x="424" y="563"/>
      <point x="534" y="563" type="qcurve" smooth="yes"/>
      <point x="622" y="563"/>
      <point x="771" y="460"/>
      <point x="771" y="399" type="qcurve" smooth="yes"/>
      <point x="771" y="333"/>
      <point x="655" y="272" type="qcurve"/>
      <point x="685" y="243"/>
      <point x="761" y="221"/>
      <point x="831" y="221" type="qcurve" smooth="yes"/>
      <point x="977" y="221" type="line" smooth="yes"/>
      <point x="1020" y="221"/>
      <point x="1020" y="191" type="qcurve" smooth="yes"/>
      <point x="1020" y="28" type="line" smooth="yes"/>
      <point x="1020" y="19"/>
      <point x="981" y="0"/>
      <point x="962" y="0" type="qcurve" smooth="yes"/>
      <point x="798" y="0" type="line" smooth="yes"/>
      <point x="632" y="0"/>
    </contour>
  </outline>
</glyph>
<glyph name="arAin.init" format="2">
  <advance width="909"/>
  <unicode hex="0000"/>
  <unicode hex="FECB"/>
  <outline>
    <contour>
      <point x="842" y="498" type="qcurve"/>
      <point x="842" y="364"/>
      <point x="819" y="286" type="qcurve"/>
      <point x="458" y="117" type="line" smooth="yes"/>
      <point x="208" y="0"/>
      <point x="13" y="0" type="qcurve" smooth="yes"/>
      <point x="-60" y="0"/>
      <point x="-60" y="31" type="qcurve" smooth="yes"/>
      <point x="-60" y="189" type="line" smooth="yes"/>
      <point x="-60" y="221"/>
      <point x="-19" y="221" type="qcurve" smooth="yes"/>
      <point x="86" y="222" type="line"/>
      <point x="180" y="229"/>
      <point x="235" y="242" type="qcurve"/>
      <point x="148" y="304"/>
      <point x="148" y="392" type="qcurve" smooth="yes"/>
      <point x="148" y="442"/>
      <point x="227" y="588"/>
      <point x="286" y="647" type="qcurve" smooth="yes"/>
      <point x="393" y="752"/>
      <point x="492" y="752" type="qcurve" smooth="yes"/>
      <point x="577" y="752"/>
      <point x="660" y="677" type="qcurve" smooth="yes"/>
      <point x="739" y="607"/>
      <point x="739" y="566" type="qcurve" smooth="yes"/>
      <point x="739" y="547"/>
      <point x="720" y="547" type="qcurve" smooth="yes"/>
      <point x="714" y="547"/>
      <point x="687" y="557" type="qcurve" smooth="yes"/>
      <point x="617" y="582"/>
      <point x="562" y="582" type="qcurve" smooth="yes"/>
      <point x="482" y="582"/>
      <point x="304" y="518"/>
      <point x="304" y="489" type="qcurve" smooth="yes"/>
      <point x="304" y="441"/>
      <point x="430" y="351"/>
      <point x="501" y="347" type="qcurve"/>
      <point x="573" y="360"/>
    </contour>
  </outline>
</glyph>
<glyph name="arAin.medi" format="2">
  <advance width="797"/>
  <unicode hex="0000"/>
  <unicode hex="FECC"/>
  <outline>
    <contour>
      <point x="291" y="278" type="qcurve"/>
      <point x="249" y="313"/>
      <point x="152" y="337" type="qcurve"/>
      <point x="173" y="446"/>
      <point x="324" y="574"/>
      <point x="433" y="574" type="qcurve" smooth="yes"/>
      <point x="524" y="574"/>
      <point x="649" y="488"/>
      <point x="649" y="425" type="qcurve" smooth="yes"/>
      <point x="649" y="351"/>
      <point x="535" y="300" type="qcurve"/>
      <point x="566" y="256"/>
      <point x="688" y="221"/>
      <point x="813" y="221" type="qcurve" smooth="yes"/>
      <point x="824" y="221" type="line" smooth="yes"/>
      <point x="856" y="221"/>
      <point x="856" y="191" type="qcurve" smooth="yes"/>
      <point x="856" y="28" type="line" smooth="yes"/>
      <point x="856" y="19"/>
      <point x="817" y="0"/>
      <point x="798" y="0" type="qcurve"/>
      <point x="721" y="-12"/>
      <point x="591" y="44"/>
      <point x="495" y="129" type="qcurve" smooth="yes"/>
      <point x="444" y="175"/>
      <point x="422" y="175" type="qcurve" smooth="yes"/>
      <point x="399" y="175"/>
      <point x="362" y="151" type="qcurve" smooth="yes"/>
      <point x="214" y="51"/>
      <point x="69" y="-10"/>
      <point x="0" y="0" type="qcurve"/>
      <point x="-59" y="0"/>
      <point x="-59" y="31" type="qcurve" smooth="yes"/>
      <point x="-59" y="189" type="line" smooth="yes"/>
      <point x="-59" y="221"/>
      <point x="-17" y="221" type="qcurve"/>
      <point x="-2" y="224"/>
      <point x="90" y="224" type="qcurve" smooth="yes"/>
      <point x="237" y="224"/>
    </contour>
  </outline>
</glyph>
<glyph name="arBeh.fina" format="2">
  <advance width="1618"/>
  <unicode hex="0000"/>
  <unicode hex="FE90"/>
  <outline>
    <contour>
      <point x="1385" y="120" type="qcurve"/>
      <point x="1225" y="22"/>
      <point x="1105" y="-9" type="qcurve" smooth="yes"/>
      <point x="901" y="-60"/>
      <point x="683" y="-60" type="qcurve" smooth="yes"/>
      <point x="384" y="-60"/>
      <point x="70" y="105"/>
      <point x="70" y="262" type="qcurve" smooth="yes"/>
      <point x="70" y="396"/>
      <point x="162" y="517" type="qcurve" smooth="yes"/>
      <point x="188" y="552"/>
      <point x="198" y="552" type="qcurve" smooth="yes"/>
      <point x="212" y="552"/>
      <point x="212" y="539" type="qcurve" smooth="yes"/>
      <point x="212" y="534"/>
      <point x="206" y="522" type="qcurve" smooth="yes"/>
      <point x="205" y="520"/>
      <point x="200" y="510" type="qcurve" smooth="yes"/>
      <point x="192" y="494" type="line" smooth="yes"/>
      <point x="169" y="444"/>
      <point x="169" y="397" type="qcurve" smooth="yes"/>
      <point x="169" y="156"/>
      <point x="781" y="156" type="qcurve" smooth="yes"/>
      <point x="1135" y="156"/>
      <point x="1300" y="229" type="qcurve" smooth="yes"/>
      <point x="1337" y="246"/>
      <point x="1355" y="307" type="qcurve" smooth="yes"/>
      <point x="1366" y="343"/>
      <point x="1385" y="343" type="qcurve" smooth="yes"/>
      <point x="1402" y="343"/>
      <point x="1413" y="309" type="qcurve" smooth="yes"/>
      <point x="1432" y="249"/>
      <point x="1502" y="221"/>
      <point x="1634" y="221" type="qcurve" smooth="yes"/>
      <point x="1645" y="221" type="line" smooth="yes"/>
      <point x="1678" y="221"/>
      <point x="1678" y="191" type="qcurve" smooth="yes"/>
      <point x="1678" y="28" type="line" smooth="yes"/>
      <point x="1678" y="19"/>
      <point x="1637" y="-1"/>
      <point x="1620" y="0" type="qcurve"/>
      <point x="1592" y="-4"/>
      <point x="1484" y="12"/>
      <point x="1459" y="23" type="qcurve" smooth="yes"/>
      <point x="1399" y="52"/>
    </contour>
    <contour>
      <point x="912" y="-378" type="qcurve"/>
      <point x="846" y="-453"/>
      <point x="799" y="-539" type="qcurve"/>
      <point x="716" y="-463"/>
      <point x="634" y="-422" type="qcurve"/>
      <point x="686" y="-360"/>
      <point x="750" y="-262" type="qcurve"/>
      <point x="816" y="-322"/>
    </contour>
  </outline>
</glyph>
<glyph name="arBeh.init" format="2">
  <advance width="435"/>
  <unicode hex="0000"/>
  <unicode hex="FE91"/>
  <outline>
    <contour>
      <point x="265" y="251" type="qcurve"/>
      <point x="250" y="291"/>
      <point x="209" y="335" type="qcurve" smooth="yes"/>
      <point x="172" y="375" type="line" smooth="yes"/>
      <point x="170" y="377"/>
      <point x="163" y="385" type="qcurve"/>
      <point x="192" y="462"/>
      <point x="259" y="552" type="qcurve" smooth="yes"/>
      <point x="267" y="563" type="line"/>
      <point x="363" y="423"/>
      <point x="363" y="273" type="qcurve" smooth="yes"/>
      <point x="363" y="211"/>
      <point x="304" y="77"/>
      <point x="257" y="34" type="qcurve"/>
      <point x="225" y="12"/>
      <point x="139" y="6" type="qcurve" smooth="yes"/>
      <point x="120" y="4"/>
      <point x="87" y="1" type="qcurve" smooth="yes"/>
      <point x="27" y="-4"/>
      <point x="-2" y="0" type="qcurve"/>
      <point x="-60" y="0"/>
      <point x="-60" y="31" type="qcurve" smooth="yes"/>
      <point x="-60" y="189" type="line" smooth="yes"/>
      <point x="-60" y="221"/>
      <point x="-19" y="221" type="qcurve" smooth="yes"/>
      <point x="143" y="221" type="line" smooth="yes"/>
      <point x="231" y="221"/>
    </contour>
    <contour>
      <point x="376" y="-326" type="qcurve"/>
      <point x="309" y="-401"/>
      <point x="262" y="-488" type="qcurve"/>
      <point x="179" y="-411"/>
      <point x="97" y="-370" type="qcurve"/>
      <point x="150" y="-308"/>
      <point x="213" y="-210" type="qcurve"/>
      <point x="279" y="-270"/>
    </contour>
  </outline>
</glyph>
<glyph name="arDal.fina" format="2">
  <advance width="895"/>
  <unicode hex="0000"/>
  <unicode hex="FEAA"/>
  <outline>
    <contour>
      <point x="510" y="810" type="qcurve"/>
      <point x="635" y="953" type="line"/>
      <point x="700" y="471" type="line" smooth="yes"/>
      <point x="733" y="221"/>
      <point x="840" y="221" type="qcurve" smooth="yes"/>
      <point x="911" y="221" type="line" smooth="yes"/>
      <point x="954" y="221"/>
      <point x="954" y="191" type="qcurve" smooth="yes"/>
      <point x="954" y="28" type="line" smooth="yes"/>
      <point x="954" y="-1"/>
      <point x="876" y="-1" type="qcurve" smooth="yes"/>
      <point x="779" y="-1"/>
      <point x="670" y="82"/>
      <point x="650" y="171" type="qcurve" smooth="yes"/>
      <point x="640" y="215"/>
      <point x="623" y="215" type="qcurve" smooth="yes"/>
      <point x="609" y="215"/>
      <point x="589" y="180" type="qcurve" smooth="yes"/>
      <point x="489" y="13"/>
      <point x="279" y="13" type="qcurve" smooth="yes"/>
      <point x="194" y="13"/>
      <point x="59" y="54"/>
      <point x="53" y="81" type="qcurve"/>
      <point x="57" y="159"/>
      <point x="107" y="320"/>
      <point x="128" y="320" type="qcurve" smooth="yes"/>
      <point x="134" y="320"/>
      <point x="138" y="299" type="qcurve" smooth="yes"/>
      <point x="145" y="258"/>
      <point x="236" y="214"/>
      <point x="310" y="214" type="qcurve" smooth="yes"/>
      <point x="460" y="214"/>
      <point x="574" y="290"/>
      <point x="574" y="390" type="qcurve" smooth="yes"/>
      <point x="574" y="423"/>
      <point x="564" y="501" type="qcurve" smooth="yes"/>
      <point x="554" y="576" type="line" smooth="yes"/>
      <point x="547" y="630"/>
    </contour>
  </outline>
</glyph>
<glyph name="arFeh.init" format="2">
  <advance width="566"/>
  <unicode hex="0000"/>
  <unicode hex="FED3"/>
  <outline>
    <contour>
      <point x="196" y="507" type="qcurve"/>
      <point x="217" y="498"/>
      <point x="239" y="498" type="qcurve" smooth="yes"/>
      <point x="258" y="498"/>
      <point x="293" y="524"/>
      <point x="293" y="539" type="qcurve" smooth="yes"/>
      <point x="293" y="552"/>
      <point x="255" y="592"/>
      <point x="243" y="592" type="qcurve" smooth="yes"/>
      <point x="230" y="592"/>
      <point x="203" y="541"/>
    </contour>
    <contour>
      <point x="416" y="323" type="qcurve"/>
      <point x="417" y="330"/>
      <point x="417" y="334" type="qcurve" smooth="yes"/>
      <point x="417" y="363"/>
      <point x="391" y="419"/>
      <point x="377" y="419" type="qcurve" smooth="yes"/>
      <point x="363" y="419"/>
      <point x="350" y="398" type="qcurve" smooth="yes"/>
      <point x="312" y="337"/>
      <point x="226" y="337" type="qcurve" smooth="yes"/>
      <point x="108" y="337"/>
      <point x="108" y="437" type="qcurve" smooth="yes"/>
      <point x="108" y="541"/>
      <point x="225" y="785"/>
      <point x="275" y="785" type="qcurve" smooth="yes"/>
      <point x="342" y="785"/>
      <point x="424" y="626" type="qcurve" smooth="yes"/>
      <point x="492" y="496"/>
      <point x="492" y="380" type="qcurve" smooth="yes"/>
      <point x="492" y="172"/>
      <point x="385" y="95" type="qcurve" smooth="yes"/>
      <point x="254" y="0"/>
      <point x="-1" y="0" type="qcurve" smooth="yes"/>
      <point x="-60" y="0"/>
      <point x="-60" y="31" type="qcurve" smooth="yes"/>
      <point x="-60" y="189" type="line" smooth="yes"/>
      <point x="-60" y="221"/>
      <point x="-19" y="221" type="qcurve" smooth="yes"/>
      <point x="126" y="221" type="line" smooth="yes"/>
      <point x="301" y="221"/>
    </contour>
    <contour>
      <point x="366" y="1079" type="qcurve"/>
      <point x="300" y="1004"/>
      <point x="253" y="918" type="qcurve"/>
      <point x="170" y="994"/>
      <point x="88" y="1035" type="qcurve"/>
      <point x="140" y="1097"/>
      <point x="204" y="1195" type="qcurve"/>
      <point x="270" y="1135"/>
    </contour>
  </outline>
</glyph>
<glyph name="arFeh.medi" format="2">
  <advance width="682"/>
  <unicode hex="0000"/>
  <unicode hex="FED4"/>
  <outline>
    <contour>
      <point x="383" y="285" type="qcurve" smooth="yes"/>
      <point x="440" y="285"/>
      <point x="527" y="350"/>
      <point x="527" y="392" type="qcurve" smooth="yes"/>
      <point x="527" y="437"/>
      <point x="455" y="508"/>
      <point x="411" y="508" type="qcurve" smooth="yes"/>
      <point x="366" y="508"/>
      <point x="258" y="425"/>
      <point x="258" y="390" type="qcurve" smooth="yes"/>
      <point x="258" y="355"/>
      <point x="341" y="285"/>
    </contour>
    <contour>
      <point x="741" y="191" type="qcurve" smooth="yes"/>
      <point x="741" y="28" type="line" smooth="yes"/>
      <point x="741" y="19"/>
      <point x="702" y="0"/>
      <point x="683" y="0" type="qcurve" smooth="yes"/>
      <point x="611" y="0" type="line" smooth="yes"/>
      <point x="502" y="0"/>
      <point x="374" y="73" type="qcurve" smooth="yes"/>
      <point x="342" y="92"/>
      <point x="322" y="92" type="qcurve" smooth="yes"/>
      <point x="298" y="92"/>
      <point x="254" y="69" type="qcurve" smooth="yes"/>
      <point x="122" y="0"/>
      <point x="-2" y="0" type="qcurve" smooth="yes"/>
      <point x="-59" y="0"/>
      <point x="-59" y="31" type="qcurve" smooth="yes"/>
      <point x="-59" y="189" type="line" smooth="yes"/>
      <point x="-59" y="221"/>
      <point x="-17" y="221" type="qcurve" smooth="yes"/>
      <point x="78" y="221" type="line" smooth="yes"/>
      <point x="97" y="221"/>
      <point x="108" y="222" type="qcurve" smooth="yes"/>
      <point x="136" y="224" type="line" smooth="yes"/>
      <point x="184" y="228"/>
      <point x="184" y="249" type="qcurve" smooth="yes"/>
      <point x="184" y="252"/>
      <point x="183" y="256" type="qcurve" smooth="yes"/>
      <point x="178" y="273" type="line" smooth="yes"/>
      <point x="172" y="291"/>
      <point x="172" y="307" type="qcurve" smooth="yes"/>
      <point x="172" y="408"/>
      <point x="418" y="703"/>
      <point x="502" y="703" type="qcurve" smooth="yes"/>
      <point x="547" y="703"/>
      <point x="616" y="576"/>
      <point x="616" y="493" type="qcurve" smooth="yes"/>
      <point x="616" y="380"/>
      <point x="530" y="256" type="qcurve" smooth="yes"/>
      <point x="523" y="246"/>
      <point x="523" y="240" type="qcurve" smooth="yes"/>
      <point x="523" y="221"/>
      <point x="578" y="221" type="qcurve" smooth="yes"/>
      <point x="698" y="221" type="line" smooth="yes"/>
      <point x="741" y="221"/>
    </contour>
    <contour>
      <point x="572" y="1057" type="qcurve"/>
      <point x="505" y="982"/>
      <point x="458" y="895" type="qcurve"/>
      <point x="376" y="971"/>
      <point x="293" y="1012" type="qcurve"/>
      <point x="346" y="1074"/>
      <point x="409" y="1172" type="qcurve"/>
      <point x="476" y="1113"/>
    </contour>
  </outline>
</glyph>
<glyph name="arHah.fina" format="2">
  <advance width="1251"/>
  <unicode hex="0000"/>
  <unicode hex="FEA2"/>
  <outline>
    <contour>
      <point x="517" y="321" type="qcurve"/>
      <point x="416" y="354"/>
      <point x="316" y="354" type="qcurve" smooth="yes"/>
      <point x="261" y="354"/>
      <point x="197" y="325"/>
      <point x="164" y="286" type="qcurve" smooth="yes"/>
      <point x="148" y="267"/>
      <point x="136" y="267" type="qcurve" smooth="yes"/>
      <point x="122" y="267"/>
      <point x="122" y="284" type="qcurve" smooth="yes"/>
      <point x="122" y="308"/>
      <point x="180" y="437"/>
      <point x="206" y="473" type="qcurve" smooth="yes"/>
      <point x="283" y="576"/>
      <point x="420" y="576" type="qcurve" smooth="yes"/>
      <point x="467" y="576"/>
      <point x="539" y="561" type="qcurve" smooth="yes"/>
      <point x="617" y="544" type="line" smooth="yes"/>
      <point x="736" y="518"/>
      <point x="943" y="518" type="qcurve" smooth="yes"/>
      <point x="972" y="519" type="line"/>
      <point x="1037" y="521" type="line"/>
      <point x="1082" y="522" type="line" smooth="yes"/>
      <point x="1094" y="522"/>
      <point x="1118" y="526" type="qcurve"/>
      <point x="1030" y="326" type="line"/>
      <point x="1014" y="326"/>
      <point x="976" y="321" type="qcurve" smooth="yes"/>
      <point x="932" y="315" type="line" smooth="yes"/>
      <point x="895" y="310"/>
      <point x="847" y="302" type="qcurve"/>
      <point x="852" y="221"/>
      <point x="918" y="221" type="qcurve" smooth="yes"/>
      <point x="1268" y="221" type="line" smooth="yes"/>
      <point x="1311" y="221"/>
      <point x="1311" y="191" type="qcurve" smooth="yes"/>
      <point x="1311" y="28" type="line" smooth="yes"/>
      <point x="1311" y="19"/>
      <point x="1272" y="0"/>
      <point x="1253" y="0" type="qcurve" smooth="yes"/>
      <point x="939" y="0" type="line" smooth="yes"/>
      <point x="852" y="0"/>
      <point x="739" y="78"/>
      <point x="739" y="139" type="qcurve" smooth="yes"/>
      <point x="739" y="201"/>
      <point x="778" y="290" type="qcurve"/>
      <point x="535" y="234"/>
      <point x="199" y="-82"/>
      <point x="199" y="-255" type="qcurve" smooth="yes"/>
      <point x="199" y="-445"/>
      <point x="543" y="-668"/>
      <point x="837" y="-668" type="qcurve" smooth="yes"/>
      <point x="1001" y="-668"/>
      <point x="1192" y="-654" type="qcurve" smooth="yes"/>
      <point x="1340" y="-642" type="line" smooth="yes"/>
      <point x="1385" y="-639"/>
      <point x="1407" y="-639" type="qcurve" smooth="yes"/>
      <point x="1436" y="-639"/>
      <point x="1436" y="-649" type="qcurve" smooth="yes"/>
      <point x="1436" y="-663"/>
      <point x="1282" y="-760"/>
      <point x="1200" y="-798" type="qcurve" smooth="yes"/>
      <point x="968" y="-904"/>
      <point x="785" y="-904" type="qcurve" smooth="yes"/>
      <point x="76" y="-904"/>
      <point x="76" y="-373" type="qcurve" smooth="yes"/>
      <point x="76" y="32"/>
      <point x="474" y="291" type="qcurve" smooth="yes"/>
      <point x="488" y="301"/>
    </contour>
  </outline>
</glyph>
<glyph name="arHah.medi" format="2">
  <advance width="1252"/>
  <unicode hex="0000"/>
  <unicode hex="FEA4"/>
  <outline>
    <contour>
      <point x="95" y="221" type="line"/>
      <point x="173" y="225"/>
      <point x="271" y="259" type="qcurve" smooth="yes"/>
      <point x="360" y="289" type="line"/>
      <point x="448" y="321" type="line" smooth="yes"/>
      <point x="489" y="336"/>
      <point x="552" y="356" type="qcurve"/>
      <point x="393" y="436"/>
      <point x="267" y="436" type="qcurve" smooth="yes"/>
      <point x="194" y="436"/>
      <point x="137" y="416" type="qcurve" smooth="yes"/>
      <point x="106" y="405" type="line" smooth="yes"/>
      <point x="97" y="402"/>
      <point x="90" y="402" type="qcurve" smooth="yes"/>
      <point x="74" y="402"/>
      <point x="74" y="418" type="qcurve" smooth="yes"/>
      <point x="74" y="440"/>
      <point x="122" y="516" type="qcurve" smooth="yes"/>
      <point x="198" y="637"/>
      <point x="304" y="637" type="qcurve" smooth="yes"/>
      <point x="363" y="637"/>
      <point x="452" y="600" type="qcurve" smooth="yes"/>
      <point x="552" y="558" type="line" smooth="yes"/>
      <point x="758" y="471"/>
      <point x="984" y="471" type="qcurve" smooth="yes"/>
      <point x="1047" y="471"/>
      <point x="1132" y="477" type="qcurve" smooth="yes"/>
      <point x="1163" y="480" type="line"/>
      <point x="1094" y="278" type="line"/>
      <point x="918" y="278" type="line"/>
      <point x="918" y="221"/>
      <point x="977" y="221" type="qcurve" smooth="yes"/>
      <point x="1267" y="221" type="line" smooth="yes"/>
      <point x="1311" y="221"/>
      <point x="1311" y="191" type="qcurve" smooth="yes"/>
      <point x="1311" y="28" type="line" smooth="yes"/>
      <point x="1311" y="19"/>
      <point x="1272" y="0"/>
      <point x="1253" y="0" type="qcurve" smooth="yes"/>
      <point x="968" y="0" type="line" smooth="yes"/>
      <point x="887" y="0"/>
      <point x="788" y="79"/>
      <point x="788" y="144" type="qcurve" smooth="yes"/>
      <point x="788" y="205"/>
      <point x="822" y="259" type="qcurve" smooth="yes"/>
      <point x="831" y="273" type="line"/>
      <point x="808" y="270" type="line" smooth="yes"/>
      <point x="585" y="243"/>
      <point x="374" y="124" type="qcurve" smooth="yes"/>
      <point x="301" y="84" type="line" smooth="yes"/>
      <point x="215" y="36"/>
      <point x="87" y="0"/>
      <point x="1" y="0" type="qcurve" smooth="yes"/>
      <point x="-59" y="0"/>
      <point x="-59" y="31" type="qcurve" smooth="yes"/>
      <point x="-59" y="189" type="line" smooth="yes"/>
      <point x="-59" y="221"/>
      <point x="-18" y="221" type="qcurve" smooth="yes"/>
    </contour>
  </outline>
</glyph>
<glyph name="arHeh.init" format="2">
  <advance width="893"/>
  <unicode hex="0000"/>
  <unicode hex="FEEB"/>
  <outline>
    <contour>
      <point x="573" y="460" type="qcurve"/>
      <point x="564" y="455"/>
      <point x="562" y="443" type="qcurve"/>
      <point x="560" y="425" type="line" smooth="yes"/>
      <point x="551" y="360"/>
      <point x="520" y="313" type="qcurve"/>
      <point x="673" y="251"/>
      <point x="732" y="251" type="qcurve" smooth="yes"/>
      <point x="751" y="251"/>
      <point x="751" y="265" type="qcurve" smooth="yes"/>
      <point x="751" y="293"/>
      <point x="600" y="458"/>
    </contour>
    <contour>
      <point x="390" y="328" type="qcurve" smooth="yes"/>
      <point x="424" y="328"/>
      <point x="486" y="371"/>
      <point x="486" y="394" type="qcurve" smooth="yes"/>
      <point x="486" y="429"/>
      <point x="436" y="505"/>
      <point x="413" y="505" type="qcurve" smooth="yes"/>
      <point x="376" y="505"/>
      <point x="272" y="423"/>
      <point x="272" y="394" type="qcurve" smooth="yes"/>
      <point x="272" y="373"/>
      <point x="353" y="328"/>
    </contour>
    <contour>
      <point x="227" y="250" type="qcurve"/>
      <point x="196" y="294"/>
      <point x="196" y="335" type="qcurve" smooth="yes"/>
      <point x="196" y="428"/>
      <point x="316" y="558" type="qcurve" smooth="yes"/>
      <point x="332" y="576" type="line"/>
      <point x="285" y="594" type="line"/>
      <point x="294" y="679"/>
      <point x="346" y="778"/>
      <point x="381" y="778" type="qcurve" smooth="yes"/>
      <point x="424" y="778"/>
      <point x="583" y="673"/>
      <point x="658" y="597" type="qcurve" smooth="yes"/>
      <point x="826" y="423"/>
      <point x="826" y="283" type="qcurve" smooth="yes"/>
      <point x="826" y="77"/>
      <point x="720" y="77" type="qcurve" smooth="yes"/>
      <point x="687" y="77"/>
      <point x="567" y="124" type="qcurve" smooth="yes"/>
      <point x="464" y="164"/>
      <point x="411" y="164" type="qcurve" smooth="yes"/>
      <point x="341" y="164"/>
      <point x="263" y="86" type="qcurve" smooth="yes"/>
      <point x="176" y="0"/>
      <point x="2" y="0" type="qcurve" smooth="yes"/>
      <point x="-60" y="0"/>
      <point x="-60" y="31" type="qcurve" smooth="yes"/>
      <point x="-60" y="189" type="line" smooth="yes"/>
      <point x="-60" y="221"/>
      <point x="-7" y="221" type="qcurve" smooth="yes"/>
      <point x="28" y="221" type="line" smooth="yes"/>
      <point x="174" y="221"/>
    </contour>
  </outline>
</glyph>
<glyph name="arHeh.medi" format="2">
  <advance width="797"/>
  <unicode hex="0000"/>
  <unicode hex="FEEC"/>
  <outline>
    <contour>
      <point x="570" y="-190" type="qcurve" smooth="yes"/>
      <point x="572" y="-150"/>
      <point x="386" y="-45"/>
      <point x="313" y="-45" type="qcurve" smooth="yes"/>
      <point x="289" y="-45"/>
      <point x="289" y="-64" type="qcurve" smooth="yes"/>
      <point x="289" y="-98"/>
      <point x="340" y="-168" type="qcurve" smooth="yes"/>
      <point x="404" y="-256"/>
      <point x="478" y="-256" type="qcurve" smooth="yes"/>
      <point x="510" y="-256"/>
      <point x="569" y="-214"/>
    </contour>
    <contour>
      <point x="535" y="409" type="qcurve" smooth="yes"/>
      <point x="536" y="427"/>
      <point x="481" y="480"/>
      <point x="461" y="480" type="qcurve" smooth="yes"/>
      <point x="428" y="480"/>
      <point x="306" y="335"/>
      <point x="306" y="295" type="qcurve" smooth="yes"/>
      <point x="306" y="286"/>
      <point x="319" y="286" type="qcurve" smooth="yes"/>
      <point x="367" y="286"/>
      <point x="533" y="381"/>
    </contour>
    <contour>
      <point x="583" y="-13" type="qcurve"/>
      <point x="639" y="-118"/>
      <point x="639" y="-195" type="qcurve" smooth="yes"/>
      <point x="639" y="-288"/>
      <point x="519" y="-442"/>
      <point x="447" y="-442" type="qcurve" smooth="yes"/>
      <point x="343" y="-442"/>
      <point x="211" y="-224"/>
      <point x="199" y="-33" type="qcurve"/>
      <point x="153" y="-42" type="line"/>
      <point x="141" y="12" type="line"/>
      <point x="66" y="0"/>
      <point x="5" y="0" type="qcurve" smooth="yes"/>
      <point x="-59" y="0"/>
      <point x="-59" y="31" type="qcurve" smooth="yes"/>
      <point x="-59" y="189" type="line" smooth="yes"/>
      <point x="-59" y="217"/>
      <point x="-17" y="221" type="qcurve"/>
      <point x="29" y="221" type="line" smooth="yes"/>
      <point x="144" y="221"/>
      <point x="213" y="243" type="qcurve"/>
      <point x="253" y="409"/>
      <point x="350" y="533" type="qcurve" smooth="yes"/>
      <point x="402" y="600"/>
      <point x="524" y="687"/>
      <point x="565" y="687" type="qcurve" smooth="yes"/>
      <point x="598" y="687"/>
      <point x="622" y="611"/>
      <point x="622" y="509" type="qcurve" smooth="yes"/>
      <point x="622" y="400"/>
      <point x="540" y="250"/>
      <point x="440" y="178" type="qcurve"/>
      <point x="451" y="172" type="line"/>
      <point x="587" y="221"/>
      <point x="813" y="221" type="qcurve" smooth="yes"/>
      <point x="856" y="221"/>
      <point x="856" y="191" type="qcurve" smooth="yes"/>
      <point x="856" y="28" type="line" smooth="yes"/>
      <point x="856" y="7"/>
      <point x="798" y="0" type="qcurve"/>
      <point x="730" y="-1" type="line"/>
      <point x="667" y="-4" type="line" smooth="yes"/>
      <point x="629" y="-4"/>
    </contour>
  </outline>
</glyph>
<glyph name="arKaf.init" format="2">
  <advance width="898"/>
  <unicode hex="0000"/>
  <unicode hex="FEDB"/>
  <outline>
    <contour>
      <point x="769" y="1006" type="line"/>
      <point x="598" y="951"/>
      <point x="263" y="810"/>
      <point x="199" y="767" type="qcurve"/>
      <point x="220" y="755"/>
      <point x="230" y="749" type="qcurve" smooth="yes"/>
      <point x="311" y="702" type="line" smooth="yes"/>
      <point x="447" y="623"/>
      <point x="593" y="414"/>
      <point x="593" y="297" type="qcurve" smooth="yes"/>
      <point x="593" y="0"/>
      <point x="233" y="0" type="qcurve" smooth="yes"/>
      <point x="-2" y="0" type="line" smooth="yes"/>
      <point x="-60" y="0"/>
      <point x="-60" y="31" type="qcurve" smooth="yes"/>
      <point x="-60" y="189" type="line" smooth="yes"/>
      <point x="-60" y="221"/>
      <point x="-19" y="221" type="qcurve" smooth="yes"/>
      <point x="313" y="221" type="line" smooth="yes"/>
      <point x="400" y="221"/>
      <point x="518" y="262"/>
      <point x="518" y="292" type="qcurve" smooth="yes"/>
      <point x="518" y="330"/>
      <point x="347" y="485"/>
      <point x="256" y="529" type="qcurve" smooth="yes"/>
      <point x="164" y="574" type="line" smooth="yes"/>
      <point x="116" y="597"/>
      <point x="82" y="670"/>
      <point x="82" y="746" type="qcurve" smooth="yes"/>
      <point x="82" y="790"/>
      <point x="101" y="834"/>
      <point x="134" y="865" type="qcurve" smooth="yes"/>
      <point x="233" y="954"/>
      <point x="665" y="1163"/>
      <point x="869" y="1221" type="qcurve"/>
    </contour>
  </outline>
</glyph>
<glyph name="arKaf.medi" format="2">
  <advance width="1024"/>
  <unicode hex="0000"/>
  <unicode hex="FEDC"/>
  <outline>
    <contour>
      <point x="1007" y="1316" type="line"/>
      <point x="887" y="1082" type="line"/>
      <point x="654" y="1003"/>
      <point x="451" y="908" type="qcurve" smooth="yes"/>
      <point x="196" y="787"/>
      <point x="196" y="751" type="qcurve" smooth="yes"/>
      <point x="196" y="735"/>
      <point x="311" y="688" type="qcurve" smooth="yes"/>
      <point x="424" y="643"/>
      <point x="684" y="477"/>
      <point x="768" y="397" type="qcurve" smooth="yes"/>
      <point x="843" y="326" type="line" smooth="yes"/>
      <point x="952" y="221"/>
      <point x="1040" y="221" type="qcurve" smooth="yes"/>
      <point x="1051" y="221" type="line" smooth="yes"/>
      <point x="1083" y="221"/>
      <point x="1083" y="191" type="qcurve" smooth="yes"/>
      <point x="1083" y="28" type="line" smooth="yes"/>
      <point x="1083" y="18"/>
      <point x="1042" y="0"/>
      <point x="1019" y="0" type="qcurve" smooth="yes"/>
      <point x="936" y="0"/>
      <point x="807" y="126" type="qcurve" smooth="yes"/>
      <point x="721" y="209" type="line"/>
      <point x="678" y="251" type="line" smooth="yes"/>
      <point x="656" y="272"/>
      <point x="631" y="299" type="qcurve" smooth="yes"/>
      <point x="586" y="346"/>
      <point x="561" y="361" type="qcurve"/>
      <point x="557" y="363" type="line"/>
      <point x="551" y="363"/>
      <point x="551" y="351" type="qcurve" smooth="yes"/>
      <point x="553" y="303" type="line" smooth="yes"/>
      <point x="553" y="158"/>
      <point x="338" y="0"/>
      <point x="142" y="0" type="qcurve" smooth="yes"/>
      <point x="0" y="0" type="line" smooth="yes"/>
      <point x="-59" y="0"/>
      <point x="-59" y="31" type="qcurve" smooth="yes"/>
      <point x="-59" y="189" type="line" smooth="yes"/>
      <point x="-59" y="221"/>
      <point x="-17" y="221" type="qcurve" smooth="yes"/>
      <point x="136" y="221" type="line" smooth="yes"/>
      <point x="284" y="221"/>
      <point x="478" y="296"/>
      <point x="478" y="353" type="qcurve" smooth="yes"/>
      <point x="478" y="383"/>
      <point x="404" y="440"/>
      <point x="294" y="494" type="qcurve" smooth="yes"/>
      <point x="230" y="525" type="line" smooth="yes"/>
      <point x="174" y="553"/>
      <point x="100" y="682"/>
      <point x="100" y="753" type="qcurve" smooth="yes"/>
      <point x="100" y="852"/>
      <point x="544" y="1142"/>
      <point x="902" y="1277" type="qcurve" smooth="yes"/>
      <point x="986" y="1308" type="line"/>
    </contour>
  </outline>
</glyph>
<glyph name="arMeem.fina" format="2">
  <advance width="961"/>
  <unicode hex="0000"/>
  <unicode hex="FEE2"/>
  <outline>
    <contour>
      <point x="384" y="379" type="qcurve"/>
      <point x="416" y="423"/>
      <point x="437" y="423" type="qcurve" smooth="yes"/>
      <point x="456" y="423"/>
      <point x="485" y="390" type="qcurve" smooth="yes"/>
      <point x="507" y="363" type="line" smooth="yes"/>
      <point x="629" y="221"/>
      <point x="977" y="221" type="qcurve" smooth="yes"/>
      <point x="989" y="221" type="line" smooth="yes"/>
      <point x="1021" y="221"/>
      <point x="1021" y="191" type="qcurve" smooth="yes"/>
      <point x="1021" y="28" type="line" smooth="yes"/>
      <point x="1021" y="0"/>
      <point x="951" y="0" type="qcurve" smooth="yes"/>
      <point x="747" y="0"/>
      <point x="655" y="51" type="qcurve" smooth="yes"/>
      <point x="640" y="60"/>
      <point x="636" y="60" type="qcurve" smooth="yes"/>
      <point x="618" y="60"/>
      <point x="618" y="-10" type="qcurve" smooth="yes"/>
      <point x="618" y="-33" type="line" smooth="yes"/>
      <point x="618" y="-98"/>
      <point x="561" y="-176"/>
      <point x="515" y="-176" type="qcurve" smooth="yes"/>
      <point x="456" y="-176"/>
      <point x="373" y="-60"/>
      <point x="361" y="40" type="qcurve" smooth="yes"/>
      <point x="354" y="96"/>
      <point x="318" y="96" type="qcurve" smooth="yes"/>
      <point x="256" y="96"/>
      <point x="166" y="6"/>
      <point x="166" y="-58" type="qcurve" smooth="yes"/>
      <point x="166" y="-108"/>
      <point x="196" y="-266" type="qcurve" smooth="yes"/>
      <point x="212" y="-356"/>
      <point x="215" y="-375" type="qcurve" smooth="yes"/>
      <point x="228" y="-460" type="line" smooth="yes"/>
      <point x="269" y="-722"/>
      <point x="269" y="-894" type="qcurve" smooth="yes"/>
      <point x="269" y="-996"/>
      <point x="234" y="-996" type="qcurve" smooth="yes"/>
      <point x="210" y="-996"/>
      <point x="191" y="-900" type="qcurve" smooth="yes"/>
      <point x="176" y="-822" type="line" smooth="yes"/>
      <point x="171" y="-794"/>
      <point x="157" y="-715" type="qcurve" smooth="yes"/>
      <point x="141" y="-621" type="line" smooth="yes"/>
      <point x="130" y="-559"/>
      <point x="126" y="-525" type="qcurve" smooth="yes"/>
      <point x="115" y="-441" type="line"/>
      <point x="96" y="-295" type="line"/>
      <point x="79" y="-146" type="line" smooth="yes"/>
      <point x="68" y="-57"/>
      <point x="68" y="-28" type="qcurve" smooth="yes"/>
      <point x="68" y="85"/>
      <point x="198" y="278"/>
      <point x="312" y="336" type="qcurve" smooth="yes"/>
      <point x="363" y="362"/>
    </contour>
  </outline>
</glyph>
<glyph name="arMeem.init" format="2">
  <advance width="696"/>
  <unicode hex="0000"/>
  <unicode hex="FEE3"/>
  <outline>
    <contour>
      <point x="518" y="292" type="qcurve" smooth="yes"/>
      <point x="518" y="340"/>
      <point x="442" y="439"/>
      <point x="405" y="439" type="qcurve" smooth="yes"/>
      <point x="383" y="439"/>
      <point x="334" y="381"/>
      <point x="334" y="353" type="qcurve" smooth="yes"/>
      <point x="334" y="324"/>
      <point x="432" y="266"/>
      <point x="481" y="266" type="qcurve" smooth="yes"/>
      <point x="518" y="266"/>
    </contour>
    <contour>
      <point x="628" y="184" type="qcurve"/>
      <point x="617" y="174"/>
      <point x="614" y="171" type="qcurve" smooth="yes"/>
      <point x="581" y="139" type="line" smooth="yes"/>
      <point x="515" y="77"/>
      <point x="483" y="77" type="qcurve" smooth="yes"/>
      <point x="454" y="77"/>
      <point x="347" y="136" type="qcurve" smooth="yes"/>
      <point x="284" y="171"/>
      <point x="259" y="171" type="qcurve" smooth="yes"/>
      <point x="232" y="171"/>
      <point x="202" y="122" type="qcurve" smooth="yes"/>
      <point x="154" y="44"/>
      <point x="78" y="0"/>
      <point x="-6" y="0" type="qcurve" smooth="yes"/>
      <point x="-60" y="0"/>
      <point x="-60" y="31" type="qcurve" smooth="yes"/>
      <point x="-60" y="189" type="line" smooth="yes"/>
      <point x="-60" y="221"/>
      <point x="-19" y="221" type="qcurve"/>
      <point x="-9" y="222"/>
      <point x="14" y="222" type="qcurve" smooth="yes"/>
      <point x="122" y="222"/>
      <point x="206" y="275"/>
      <point x="258" y="376" type="qcurve" smooth="yes"/>
      <point x="323" y="505"/>
      <point x="412" y="596"/>
      <point x="471" y="596" type="qcurve" smooth="yes"/>
      <point x="548" y="596"/>
      <point x="612" y="428"/>
    </contour>
  </outline>
</glyph>
<glyph name="arNoon.fina" format="2">
  <advance width="1110"/>
  <unicode hex="0000"/>
  <unicode hex="FEE6"/>
  <outline>
    <contour>
      <point x="976" y="12" type="qcurve"/>
      <point x="976" y="-261"/>
      <point x="668" y="-585"/>
      <point x="409" y="-585" type="qcurve" smooth="yes"/>
      <point x="253" y="-585"/>
      <point x="61" y="-409"/>
      <point x="61" y="-266" type="qcurve" smooth="yes"/>
      <point x="61" y="-175"/>
      <point x="159" y="64"/>
      <point x="197" y="64" type="qcurve" smooth="yes"/>
      <point x="213" y="64"/>
      <point x="213" y="45" type="qcurve" smooth="yes"/>
      <point x="213" y="37"/>
      <point x="201" y="11" type="qcurve" smooth="yes"/>
      <point x="148" y="-106"/>
      <point x="148" y="-177" type="qcurve" smooth="yes"/>
      <point x="148" y="-263"/>
      <point x="311" y="-362"/>
      <point x="452" y="-362" type="qcurve" smooth="yes"/>
      <point x="671" y="-362"/>
      <point x="809" y="-260" type="qcurve" smooth="yes"/>
      <point x="893" y="-197"/>
      <point x="893" y="-66" type="qcurve" smooth="yes"/>
      <point x="893" y="-16"/>
      <point x="877" y="62" type="qcurve"/>
      <point x="805" y="120"/>
      <point x="774" y="197" type="qcurve"/>
      <point x="810" y="275"/>
      <point x="883" y="356" type="qcurve"/>
      <point x="931" y="267"/>
      <point x="1019" y="221"/>
      <point x="1136" y="221" type="qcurve" smooth="yes"/>
      <point x="1169" y="221"/>
      <point x="1169" y="191" type="qcurve" smooth="yes"/>
      <point x="1169" y="28" type="line" smooth="yes"/>
      <point x="1169" y="0"/>
      <point x="1096" y="0" type="qcurve" smooth="yes"/>
      <point x="1042" y="0"/>
    </contour>
    <contour>
      <point x="646" y="559" type="qcurve"/>
      <point x="579" y="484"/>
      <point x="532" y="397" type="qcurve"/>
      <point x="449" y="474"/>
      <point x="367" y="515" type="qcurve"/>
      <point x="420" y="577"/>
      <point x="483" y="675" type="qcurve"/>
      <point x="549" y="615"/>
    </contour>
  </outline>
</glyph>
<glyph name="arSad.init" format="2">
  <advance width="1473"/>
  <unicode hex="0000"/>
  <unicode hex="FEBB"/>
  <outline>
    <contour>
      <point x="606" y="221" type="line"/>
      <point x="772" y="431"/>
      <point x="1080" y="663"/>
      <point x="1193" y="663" type="qcurve" smooth="yes"/>
      <point x="1283" y="663"/>
      <point x="1405" y="540"/>
      <point x="1405" y="450" type="qcurve" smooth="yes"/>
      <point x="1405" y="262"/>
      <point x="1231" y="155" type="qcurve" smooth="yes"/>
      <point x="1122" y="87"/>
      <point x="769" y="0"/>
      <point x="606" y="0" type="qcurve"/>
      <point x="603" y="-6" type="line"/>
      <point x="576" y="-63" type="line"/>
      <point x="555" y="-105" type="line" smooth="yes"/>
      <point x="535" y="-146"/>
      <point x="516" y="-146" type="qcurve" smooth="yes"/>
      <point x="488" y="-146"/>
      <point x="488" y="-107" type="qcurve" smooth="yes"/>
      <point x="488" y="-60"/>
      <point x="517" y="0" type="qcurve"/>
      <point x="377" y="0"/>
      <point x="311" y="78" type="qcurve" smooth="yes"/>
      <point x="274" y="121" type="line" smooth="yes"/>
      <point x="265" y="132"/>
      <point x="256" y="132" type="qcurve" smooth="yes"/>
      <point x="246" y="132"/>
      <point x="214" y="89" type="qcurve" smooth="yes"/>
      <point x="146" y="0"/>
      <point x="4" y="0" type="qcurve" smooth="yes"/>
      <point x="-59" y="0"/>
      <point x="-59" y="31" type="qcurve" smooth="yes"/>
      <point x="-59" y="189" type="line" smooth="yes"/>
      <point x="-59" y="221"/>
      <point x="-17" y="221" type="qcurve" smooth="yes"/>
      <point x="40" y="222" type="line" smooth="yes"/>
      <point x="207" y="222"/>
      <point x="275" y="334" type="qcurve" smooth="yes"/>
      <point x="287" y="356"/>
      <point x="299" y="356" type="qcurve" smooth="yes"/>
      <point x="311" y="356"/>
      <point x="317" y="335" type="qcurve" smooth="yes"/>
      <point x="330" y="292" type="line" smooth="yes"/>
      <point x="351" y="221"/>
      <point x="456" y="221" type="qcurve" smooth="yes"/>
    </contour>
    <contour>
      <point x="726" y="212" type="qcurve"/>
      <point x="883" y="212"/>
      <point x="1046" y="262" type="qcurve" smooth="yes"/>
      <point x="1131" y="289"/>
      <point x="1287" y="365"/>
      <point x="1287" y="381" type="qcurve" smooth="yes"/>
      <point x="1287" y="405"/>
      <point x="1162" y="461"/>
      <point x="1108" y="461" type="qcurve" smooth="yes"/>
      <point x="1013" y="461"/>
      <point x="802" y="323"/>
    </contour>
  </outline>
</glyph>
<glyph name="arSeen.fina" format="2">
  <advance width="1147"/>
  <unicode hex="0000"/>
  <unicode hex="FEB3"/>
  <outline>
    <contour>
      <point x="968" y="265" type="line"/>
      <point x="953" y="318"/>
      <point x="912" y="365" type="qcurve"/>
      <point x="955" y="465"/>
      <point x="1013" y="515" type="qcurve"/>
      <point x="1079" y="447"/>
      <point x="1079" y="333" type="qcurve" smooth="yes"/>
      <point x="1079" y="203"/>
      <point x="975" y="59"/>
      <point x="881" y="59" type="qcurve" smooth="yes"/>
      <point x="799" y="59"/>
      <point x="706" y="138" type="qcurve"/>
      <point x="610" y="-1"/>
      <point x="469" y="-1" type="qcurve" smooth="yes"/>
      <point x="358" y="-1"/>
      <point x="283" y="110" type="qcurve" smooth="yes"/>
      <point x="268" y="132"/>
      <point x="257" y="132" type="qcurve" smooth="yes"/>
      <point x="246" y="132"/>
      <point x="208" y="85" type="qcurve" smooth="yes"/>
      <point x="139" y="0"/>
      <point x="0" y="0" type="qcurve" smooth="yes"/>
      <point x="-60" y="0"/>
      <point x="-60" y="31" type="qcurve" smooth="yes"/>
      <point x="-60" y="189" type="line" smooth="yes"/>
      <point x="-60" y="210"/>
      <point x="-26" y="223"/>
      <point x="30" y="223" type="qcurve" smooth="yes"/>
      <point x="195" y="223"/>
      <point x="257" y="310" type="qcurve" smooth="yes"/>
      <point x="288" y="355"/>
      <point x="300" y="355" type="qcurve" smooth="yes"/>
      <point x="310" y="355"/>
      <point x="322" y="316" type="qcurve" smooth="yes"/>
      <point x="351" y="221"/>
      <point x="467" y="221" type="qcurve" smooth="yes"/>
      <point x="552" y="221"/>
      <point x="662" y="285"/>
      <point x="708" y="361" type="qcurve" smooth="yes"/>
      <point x="742" y="419"/>
      <point x="762" y="419" type="qcurve" smooth="yes"/>
      <point x="777" y="419"/>
      <point x="783" y="398" type="qcurve" smooth="yes"/>
      <point x="793" y="368" type="line" smooth="yes"/>
      <point x="825" y="265"/>
      <point x="960" y="265" type="qcurve" smooth="yes"/>
    </contour>
  </outline>
</glyph>
<glyph name="arSeen.init" format="2">
  <advance width="1147"/>
  <unicode hex="0000"/>
  <unicode hex="FEB7"/>
  <outline>
    <contour>
      <point x="671" y="637" type="qcurve"/>
      <point x="594" y="703"/>
      <point x="524" y="747" type="qcurve"/>
      <point x="571" y="805"/>
      <point x="627" y="894" type="qcurve"/>
      <point x="672" y="843"/>
      <point x="728" y="809" type="qcurve"/>
      <point x="769" y="862"/>
      <point x="800" y="915" type="qcurve"/>
      <point x="876" y="845"/>
      <point x="939" y="807" type="qcurve"/>
      <point x="893" y="747"/>
      <point x="848" y="655" type="qcurve"/>
      <point x="789" y="710"/>
      <point x="738" y="741" type="qcurve"/>
      <point x="705" y="699"/>
    </contour>
    <contour>
      <point x="716" y="882" type="qcurve"/>
      <point x="679" y="912" type="line" smooth="yes"/>
      <point x="627" y="953"/>
      <point x="576" y="983" type="qcurve"/>
      <point x="623" y="1050"/>
      <point x="666" y="1148" type="qcurve"/>
      <point x="738" y="1076"/>
      <point x="806" y="1034" type="qcurve"/>
      <point x="754" y="955"/>
    </contour>
    <contour>
      <point x="968" y="265" type="line"/>
      <point x="953" y="318"/>
      <point x="912" y="365" type="qcurve"/>
      <point x="955" y="465"/>
      <point x="1013" y="515" type="qcurve"/>
      <point x="1080" y="447"/>
      <point x="1080" y="333" type="qcurve" smooth="yes"/>
      <point x="1080" y="203"/>
      <point x="975" y="59"/>
      <point x="881" y="59" type="qcurve" smooth="yes"/>
      <point x="799" y="59"/>
      <point x="706" y="138" type="qcurve"/>
      <point x="610" y="-1"/>
      <point x="469" y="-1" type="qcurve" smooth="yes"/>
      <point x="358" y="-1"/>
      <point x="283" y="110" type="qcurve" smooth="yes"/>
      <point x="268" y="132"/>
      <point x="258" y="132" type="qcurve" smooth="yes"/>
      <point x="247" y="132"/>
      <point x="209" y="85" type="qcurve" smooth="yes"/>
      <point x="139" y="0"/>
      <point x="0" y="0" type="qcurve" smooth="yes"/>
      <point x="-60" y="0"/>
      <point x="-60" y="31" type="qcurve" smooth="yes"/>
      <point x="-60" y="189" type="line" smooth="yes"/>
      <point x="-60" y="210"/>
      <point x="-25" y="223"/>
      <point x="31" y="223" type="qcurve" smooth="yes"/>
      <point x="196" y="223"/>
      <point x="257" y="310" type="qcurve" smooth="yes"/>
      <point x="289" y="355"/>
      <point x="300" y="355" type="qcurve" smooth="yes"/>
      <point x="311" y="355"/>
      <point x="323" y="316" type="qcurve" smooth="yes"/>
      <point x="352" y="221"/>
      <point x="468" y="221" type="qcurve" smooth="yes"/>
      <point x="553" y="221"/>
      <point x="662" y="285"/>
      <point x="708" y="361" type="qcurve" smooth="yes"/>
      <point x="743" y="419"/>
      <point x="762" y="419" type="qcurve" smooth="yes"/>
      <point x="777" y="419"/>
      <point x="784" y="398" type="qcurve" smooth="yes"/>
      <point x="793" y="368" type="line" smooth="yes"/>
      <point x="825" y="265"/>
      <point x="960" y="265" type="qcurve" smooth="yes"/>
    </contour>
  </outline>
</glyph>
<glyph name="arTah.fina" format="2">
  <advance width="1270"/>
  <unicode hex="0000"/>
  <unicode hex="FEC2"/>
  <outline>
    <contour>
      <point x="378" y="1157" type="qcurve"/>
      <point x="458" y="1201"/>
      <point x="503" y="1302" type="qcurve"/>
      <point x="542" y="1210"/>
      <point x="618" y="1132" type="qcurve"/>
      <point x="546" y="1069"/>
      <point x="546" y="986" type="qcurve" smooth="yes"/>
      <point x="546" y="965"/>
      <point x="551" y="936" type="qcurve" smooth="yes"/>
      <point x="568" y="847" type="line" smooth="yes"/>
      <point x="589" y="737"/>
      <point x="589" y="589" type="qcurve" smooth="yes"/>
      <point x="589" y="578"/>
      <point x="584" y="488" type="qcurve" smooth="yes"/>
      <point x="582" y="446"/>
      <point x="582" y="436" type="qcurve"/>
      <point x="604" y="453" type="line" smooth="yes"/>
      <point x="863" y="661"/>
      <point x="991" y="661" type="qcurve" smooth="yes"/>
      <point x="1073" y="661"/>
      <point x="1190" y="540"/>
      <point x="1190" y="456" type="qcurve" smooth="yes"/>
      <point x="1190" y="343"/>
      <point x="1106" y="221" type="qcurve"/>
      <point x="1286" y="221" type="line" smooth="yes"/>
      <point x="1329" y="221"/>
      <point x="1329" y="191" type="qcurve" smooth="yes"/>
      <point x="1329" y="28" type="line" smooth="yes"/>
      <point x="1329" y="-1"/>
      <point x="1234" y="-1" type="qcurve" smooth="yes"/>
      <point x="1122" y="-1"/>
      <point x="884" y="15" type="qcurve" smooth="yes"/>
      <point x="755" y="24"/>
      <point x="706" y="24" type="qcurve" smooth="yes"/>
      <point x="641" y="24"/>
      <point x="603" y="21" type="qcurve" smooth="yes"/>
      <point x="466" y="8" type="line" smooth="yes"/>
      <point x="386" y="0"/>
      <point x="328" y="0" type="qcurve" smooth="yes"/>
      <point x="212" y="0"/>
      <point x="126" y="92" type="qcurve" smooth="yes"/>
      <point x="68" y="155"/>
      <point x="68" y="194" type="qcurve" smooth="yes"/>
      <point x="68" y="218"/>
      <point x="108" y="218" type="qcurve"/>
      <point x="137" y="221" type="line"/>
      <point x="226" y="223" type="line" smooth="yes"/>
      <point x="330" y="223"/>
      <point x="391" y="251" type="qcurve" smooth="yes"/>
      <point x="441" y="274"/>
      <point x="477" y="368"/>
      <point x="477" y="476" type="qcurve" smooth="yes"/>
      <point x="477" y="502" type="line" smooth="yes"/>
      <point x="477" y="761"/>
    </contour>
    <contour>
      <point x="1073" y="377" type="qcurve"/>
      <point x="999" y="459"/>
      <point x="897" y="459" type="qcurve" smooth="yes"/>
      <point x="740" y="459"/>
      <point x="573" y="288" type="qcurve" smooth="yes"/>
      <point x="524" y="237"/>
      <point x="524" y="221" type="qcurve" smooth="yes"/>
      <point x="524" y="210"/>
      <point x="541" y="210" type="qcurve" smooth="yes"/>
      <point x="660" y="210"/>
      <point x="979" y="310"/>
    </contour>
  </outline>
</glyph>
<glyph name="arTah.init" format="2">
  <advance width="1018"/>
  <unicode hex="0000"/>
  <unicode hex="FEC3"/>
  <outline>
    <contour>
      <point x="343" y="436" type="qcurve"/>
      <point x="365" y="453" type="line" smooth="yes"/>
      <point x="624" y="661"/>
      <point x="752" y="661" type="qcurve" smooth="yes"/>
      <point x="834" y="661"/>
      <point x="951" y="540"/>
      <point x="951" y="456" type="qcurve" smooth="yes"/>
      <point x="951" y="267"/>
      <point x="794" y="165" type="qcurve" smooth="yes"/>
      <point x="699" y="103"/>
      <point x="339" y="-1"/>
      <point x="217" y="-1" type="qcurve" smooth="yes"/>
      <point x="-1" y="0" type="line" smooth="yes"/>
      <point x="-59" y="0"/>
      <point x="-59" y="31" type="qcurve" smooth="yes"/>
      <point x="-59" y="189" type="line" smooth="yes"/>
      <point x="-59" y="221"/>
      <point x="-18" y="221" type="qcurve" smooth="yes"/>
      <point x="47" y="223" type="line" smooth="yes"/>
      <point x="131" y="223"/>
      <point x="184" y="271" type="qcurve" smooth="yes"/>
      <point x="238" y="319"/>
      <point x="238" y="476" type="qcurve" smooth="yes"/>
      <point x="238" y="494" type="line" smooth="yes"/>
      <point x="238" y="761"/>
      <point x="139" y="1157" type="qcurve"/>
      <point x="219" y="1201"/>
      <point x="264" y="1302" type="qcurve"/>
      <point x="303" y="1210"/>
      <point x="379" y="1132" type="qcurve"/>
      <point x="307" y="1069"/>
      <point x="307" y="986" type="qcurve" smooth="yes"/>
      <point x="307" y="965"/>
      <point x="312" y="936" type="qcurve" smooth="yes"/>
      <point x="329" y="847" type="line" smooth="yes"/>
      <point x="350" y="737"/>
      <point x="350" y="589" type="qcurve" smooth="yes"/>
      <point x="350" y="578"/>
      <point x="345" y="488" type="qcurve" smooth="yes"/>
      <point x="343" y="446"/>
    </contour>
    <contour>
      <point x="834" y="377" type="qcurve"/>
      <point x="760" y="459"/>
      <point x="658" y="459" type="qcurve" smooth="yes"/>
      <point x="500" y="459"/>
      <point x="334" y="288" type="qcurve" smooth="yes"/>
      <point x="285" y="237"/>
      <point x="285" y="221" type="qcurve" smooth="yes"/>
      <point x="285" y="210"/>
      <point x="302" y="210" type="qcurve" smooth="yes"/>
      <point x="421" y="210"/>
      <point x="740" y="310"/>
    </contour>
  </outline>
</glyph>
<glyph name="arWaw.fina" format="2">
  <advance width="860"/>
  <unicode hex="0000"/>
  <unicode hex="FEEE"/>
  <outline>
    <contour>
      <point x="667" y="-2" type="qcurve"/>
      <point x="617" y="-5"/>
      <point x="594" y="-5" type="qcurve" smooth="yes"/>
      <point x="392" y="-5"/>
      <point x="392" y="135" type="qcurve" smooth="yes"/>
      <point x="392" y="223"/>
      <point x="588" y="492"/>
      <point x="652" y="492" type="qcurve" smooth="yes"/>
      <point x="696" y="492"/>
      <point x="768" y="345"/>
      <point x="784" y="221" type="qcurve"/>
      <point x="876" y="221" type="line" smooth="yes"/>
      <point x="920" y="221"/>
      <point x="920" y="191" type="qcurve" smooth="yes"/>
      <point x="920" y="28" type="line" smooth="yes"/>
      <point x="920" y="19"/>
      <point x="881" y="0"/>
      <point x="861" y="0" type="qcurve" smooth="yes"/>
      <point x="763" y="0" type="line"/>
      <point x="717" y="-192"/>
      <point x="611" y="-331" type="qcurve" smooth="yes"/>
      <point x="544" y="-419"/>
      <point x="361" y="-529"/>
      <point x="282" y="-529" type="qcurve" smooth="yes"/>
      <point x="164" y="-529"/>
      <point x="46" y="-381" type="qcurve" smooth="yes"/>
      <point x="0" y="-323"/>
      <point x="0" y="-291" type="qcurve" smooth="yes"/>
      <point x="0" y="-272"/>
      <point x="14" y="-272" type="qcurve" smooth="yes"/>
      <point x="16" y="-272" type="line"/>
      <point x="24" y="-273"/>
      <point x="32" y="-276" type="qcurve" smooth="yes"/>
      <point x="76" y="-292" type="line" smooth="yes"/>
      <point x="139" y="-315"/>
      <point x="230" y="-315" type="qcurve" smooth="yes"/>
      <point x="401" y="-315"/>
      <point x="639" y="-144"/>
    </contour>
    <contour>
      <point x="692" y="227" type="qcurve"/>
      <point x="685" y="272"/>
      <point x="629" y="353"/>
      <point x="605" y="353" type="qcurve" smooth="yes"/>
      <point x="584" y="353"/>
      <point x="537" y="280"/>
      <point x="537" y="247" type="qcurve" smooth="yes"/>
      <point x="537" y="241"/>
      <point x="539" y="228" type="qcurve"/>
      <point x="576" y="213"/>
      <point x="618" y="213" type="qcurve" smooth="yes"/>
      <point x="660" y="213"/>
    </contour>
  </outline>
</glyph>
